{
  "accessors": [
    {
      "bufferView": 2,
      "componentType": 5126,
      "count": 441,
      "max": [
        0.42525801062583923,
        -0.6266120076179504,
        2.6055729389190674
      ],
      "min": [
        -0.42525801062583923,
        -1.4901859760284424,
        1.8646990060806274
      ],
      "type": "VEC3"
    },
    {
      "bufferView": 2,
      "byteOffset": 5292,
      "componentType": 5126,
      "count": 441,
      "max": [
        0.9995548725128174,
        0.9968384504318237,
        0.9994536638259888
      ],
      "min": [
        -0.9995548725128174,
        -0.998714029788971,
        -0.9999988675117493
      ],
      "type": "VEC3"
    },
    {
      "bufferView": 1,
      "componentType": 5126,
      "count": 441,
      "max": [
        0.875,
        1.0
      ],
      "min": [
        0.125,
        0.0
      ],
      "type": "VEC2"
    },
    {
      "bufferView": 0,
      "componentType": 5125,
      "count": 2304,
      "type": "SCALAR"
    },
    {
      "bufferView": 2,
      "byteOffset": 10584,
      "componentType": 5126,
      "count": 19673,
      "max": [
        2.307523012161255,
        1.4761780500411987,
        3.5846450328826904
      ],
      "min": [
        -2.308342933654785,
        -1.2298870086669922,
        -1.2591509819030762
      ],
      "type": "VEC3"
    },
    {
      "bufferView": 2,
      "byteOffset": 246660,
      "componentType": 5126,
      "count": 19673,
      "max": [
        0.9994682669639587,
        0.9996142387390137,
        0.9996593594551086
      ],
      "min": [
        -0.9999439716339111,
        -0.9996673464775085,
        -0.9999216198921204
      ],
      "type": "VEC3"
    },
    {
      "bufferView": 1,
      "byteOffset": 3528,
      "componentType": 5126,
      "count": 19673,
      "max": [
        0.9575930237770081,
        0.9980080127716064
      ],
      "min": [
        0.0019109999993816018,
        0.0019920000340789557
      ],
      "type": "VEC2"
    },
    {
      "bufferView": 0,
      "byteOffset": 9216,
      "componentType": 5125,
      "count": 85494,
      "type": "SCALAR"
    },
    {
      "bufferView": 2,
      "byteOffset": 482736,
      "componentType": 5126,
      "count": 878,
      "max": [
        0.9873679876327515,
        -0.3062250018119812,
        2.6204209327697754
      ],
      "min": [
        -0.9873679876327515,
        -0.9069399833679199,
        2.013890027999878
      ],
      "type": "VEC3"
    },
    {
      "bufferView": 2,
      "byteOffset": 493272,
      "componentType": 5126,
      "count": 878,
      "max": [
        0.9929032325744629,
        0.9988738894462585,
        0.9906807541847229
      ],
      "min": [
        -0.9929031133651733,
        -0.998873770236969,
        -0.9906807541847229
      ],
      "type": "VEC3"
    },
    {
      "bufferView": 1,
      "byteOffset": 160912,
      "componentType": 5126,
      "count": 878,
      "max": [
        1.0,
        1.0
      ],
      "min": [
        0.0,
        0.0
      ],
      "type": "VEC2"
    },
    {
      "bufferView": 0,
      "byteOffset": 351192,
      "componentType": 5125,
      "count": 4560,
      "type": "SCALAR"
    },
    {
      "bufferView": 2,
      "byteOffset": 503808,
      "componentType": 5126,
      "count": 7586,
      "max": [
        2.5291860103607178,
        0.7362719774246216,
        3.9300479888916016
      ],
      "min": [
        -2.5291860103607178,
        0.15088699758052826,
        1.8340009450912476
      ],
      "type": "VEC3"
    },
    {
      "bufferView": 2,
      "byteOffset": 594840,
      "componentType": 5126,
      "count": 7586,
      "max": [
        0.9989885091781616,
        0.9992757439613342,
        0.9868371486663818
      ],
      "min": [
        -0.9989885091781616,
        -0.9999892115592957,
        -0.9994798898696899
      ],
      "type": "VEC3"
    },
    {
      "bufferView": 1,
      "byteOffset": 167936,
      "componentType": 5126,
      "count": 7586,
      "max": [
        0.875,
        1.0
      ],
      "min": [
        0.125,
        0.0
      ],
      "type": "VEC2"
    },
    {
      "bufferView": 0,
      "byteOffset": 369432,
      "componentType": 5125,
      "count": 43008,
      "type": "SCALAR"
    }
  ],
  "asset": {
    "extras": {
      "author": "jasonting (https://sketchfab.com/s22116270)",
      "license": "SKETCHFAB Standard (https://sketchfab.com/licenses)",
      "source": "https://sketchfab.com/3d-models/stitch-4df53bfaec014ab9b4e1eb9a841afa42",
      "title": "stitch"
    },
    "generator": "Sketchfab-15.54.0",
    "version": "2.0"
  },
  "bufferViews": [
    {
      "buffer": 0,
      "byteLength": 541464,
      "name": "floatBufferViews",
      "target": 34963
    },
    {
      "buffer": 0,
      "byteLength": 228624,
      "byteOffset": 541464,
      "byteStride": 8,
      "name": "floatBufferViews",
      "target": 34962
    },
    {
      "buffer": 0,
      "byteLength": 685872,
      "byteOffset": 770088,
      "byteStride": 12,
      "name": "floatBufferViews",
      "target": 34962
    }
  ],
  "buffers": [
    {
      "byteLength": 1455960,
      "uri": "scene.bin"
    }
  ],
  "extensionsUsed": [
    "KHR_materials_specular"
  ],
  "images": [
    {
      "uri": "textures/standardSurface7SG_baseColor.jpeg"
    },
    {
      "uri": "textures/standardSurface9SG_baseColor.jpeg"
    }
  ],
  "materials": [
    {
      "doubleSided": true,
      "name": "standardSurface2SG",
      "pbrMetallicRoughness": {
        "baseColorFactor": [
          0.01758821219943294,
          0.018755284967463603,
          0.055417560391426354,
          1.0
        ],
        "metallicFactor": 0.0,
        "roughnessFactor": 0.7211420072899271
      }
    },
    {
      "doubleSided": true,
      "extensions": {
        "KHR_materials_specular": {
          "specularColorFactor": [
            1.0,
            1.0,
            1.0
          ],
          "specularFactor": 0.5043824895466348
        }
      },
      "name": "standardSurface3SG",
      "pbrMetallicRoughness": {
        "baseColorFactor": [
          0.007149217809741786,
          0.006451621502593654,
          0.006451621502593654,
          1.0
        ],
        "metallicFactor": 0.13257183259987076,
        "roughnessFactor": 0.25790250027428663
      }
    },
    {
      "doubleSided": true,
      "name": "standardSurface7SG",
      "pbrMetallicRoughness": {
        "baseColorTexture": {
          "index": 0
        },
        "metallicFactor": 0.0
      }
    },
    {
      "doubleSided": true,
      "name": "standardSurface9SG",
      "pbrMetallicRoughness": {
        "baseColorTexture": {
          "index": 1
        },
        "metallicFactor": 0.0
      }
    }
  ],
  "meshes": [
    {
      "name": "Object_0",
      "primitives": [
        {
          "attributes": {
            "NORMAL": 1,
            "POSITION": 0,
            "TEXCOORD_0": 2
          },
          "indices": 3,
          "material": 0,
          "mode": 4
        }
      ]
    },
    {
      "name": "Object_1",
      "primitives": [
        {
          "attributes": {
            "NORMAL": 5,
            "POSITION": 4,
            "TEXCOORD_0": 6
          },
          "indices": 7,
          "material": 3,
          "mode": 4
        }
      ]
    },
    {
      "name": "Object_2",
      "primitives": [
        {
          "attributes": {
            "NORMAL": 9,
            "POSITION": 8,
            "TEXCOORD_0": 10
          },
          "indices": 11,
          "material": 1,
          "mode": 4
        }
      ]
    },
    {
      "name": "Object_3",
      "primitives": [
        {
          "attributes": {
            "NORMAL": 13,
            "POSITION": 12,
            "TEXCOORD_0": 14
          },
          "indices": 15,
          "material": 2,
          "mode": 4
        }
      ]
    }
  ],
  "nodes": [
    {
      "children": [
        1
      ],
      "matrix": [
        1.0,
        0.0,
        0.0,
        0.0,
        0.0,
        2.220446049250313e-16,
        -1.0,
        0.0,
        0.0,
        1.0,
        2.220446049250313e-16,
        0.0,
        0.0,
        0.0,
        0.0,
        1.0
      ],
      "name": "Sketchfab_model"
    },
    {
      "children": [
        2,
        3,
        4,
        5
      ],
      "name": "stitch only.obj.cleaner.materialmerger.gles"
    },
    {
      "mesh": 0,
      "name": "Object_2"
    },
    {
      "mesh": 1,
      "name": "Object_3"
    },
    {
      "mesh": 2,
      "name": "Object_4"
    },
    {
      "mesh": 3,
      "name": "Object_5"
    }
  ],
  "samplers": [
    {
      "magFilter": 9729,
      "minFilter": 9987,
      "wrapS": 10497,
      "wrapT": 10497
    }
  ],
  "scene": 0,
  "scenes": [
    {
      "name": "Sketchfab_Scene",
      "nodes": [
        0
      ]
    }
  ],
  "textures": [
    {
      "sampler": 0,
      "source": 0
    },
    {
      "sampler": 0,
      "source": 1
    }
  ]
}
